<svg width="14" height="14" viewBox="0 0 14 14" fill="none" xmlns="http://www.w3.org/2000/svg"><path d="M6.94977 6.94975L6.59621 7.30331C6.79148 7.49857 7.10806 7.49857 7.30332 7.30331L6.94977 6.94975ZM1.30332 0.596199C1.10806 0.400937 0.791477 0.400937 0.596215 0.596199C0.400953 0.791462 0.400953 1.10804 0.596215 1.30331L1.30332 0.596199ZM6.94977 6.94975L6.59621 7.30331C6.79148 7.49857 7.10806 7.49857 7.30332 7.30331L6.94977 6.94975ZM13.3033 1.30331C13.4986 1.10804 13.4986 0.791462 13.3033 0.596199C13.1081 0.400937 12.7915 0.400937 12.5962 0.596199L13.3033 1.30331ZM6.94977 6.94975L7.30332 6.5962C7.10806 6.40094 6.79148 6.40094 6.59621 6.5962L6.94977 6.94975ZM0.596215 12.5962C0.400953 12.7915 0.400953 13.108 0.596215 13.3033C0.791477 13.4986 1.10806 13.4986 1.30332 13.3033L0.596215 12.5962ZM6.94977 6.94975L7.30332 6.5962C7.10806 6.40094 6.79148 6.40094 6.59621 6.5962L6.94977 6.94975ZM12.5962 13.3033C12.7915 13.4986 13.1081 13.4986 13.3033 13.3033C13.4986 13.108 13.4986 12.7915 13.3033 12.5962L12.5962 13.3033ZM7.30332 6.5962L1.30332 0.596199L0.596215 1.30331L6.59621 7.30331L7.30332 6.5962ZM0.596215 1.30331L6.59621 7.30331L7.30332 6.5962L1.30332 0.596199L0.596215 1.30331ZM7.30332 7.30331L13.3033 1.30331L12.5962 0.596199L6.59621 6.5962L7.30332 7.30331ZM12.5962 0.596199L6.59621 6.5962L7.30332 7.30331L13.3033 1.30331L12.5962 0.596199ZM6.59621 6.5962L0.596215 12.5962L1.30332 13.3033L7.30332 7.30331L6.59621 6.5962ZM1.30332 13.3033L7.30332 7.30331L6.59621 6.5962L0.596215 12.5962L1.30332 13.3033ZM6.59621 7.30331L12.5962 13.3033L13.3033 12.5962L7.30332 6.5962L6.59621 7.30331ZM13.3033 12.5962L7.30332 6.5962L6.59621 7.30331L12.5962 13.3033L13.3033 12.5962Z" fill="white"></path></svg>
