<svg width="100" height="15" viewBox="0 0 100 15" fill="none" xmlns="http://www.w3.org/2000/svg">
	<path d="M13.1518 8.09035C13.1518 11.7252 10.5918 14.0897 6.62479 14.0897C2.63813 14.0897 0 11.7252 0 8.09035V0.195364H4.53368V8.09026C4.53368 9.4386 5.51079 10.3181 6.64428 10.3181C7.75818 10.3181 8.61798 9.45818 8.61798 8.09026V0.195364H13.1517V8.09035H13.1518Z" fill="#0182F9" />
	<path d="M26.8113 1.62195L25.1697 5.06131C23.7822 4.29915 21.6521 3.45885 20.4601 3.45885C19.952 3.45885 19.6198 3.61514 19.6198 4.02554C19.6198 5.74522 26.7134 4.67039 26.7134 9.63406C26.7134 12.6826 24.0362 14.031 20.9485 14.031C18.5644 14.031 15.9067 13.2297 14.0893 11.8423L15.7699 8.44201C17.1769 9.61457 19.6001 10.5721 20.9876 10.5721C21.652 10.5721 22.0819 10.3572 22.0819 9.86859C22.0819 8.09026 14.9883 9.26282 14.9883 4.45544C14.9884 1.71968 17.2943 0 20.851 0C23.0202 0 25.2675 0.644844 26.8113 1.62195Z" fill="#0182F9" />
	<path d="M32.4193 3.63472V5.31542H38.8291V8.75478H32.4193V10.455H39.6499V13.8943H27.8856V0.195364H39.474V3.63472H32.4193Z" fill="#0182F9" />
	<path fill-rule="evenodd" clip-rule="evenodd" d="M45.9029 10.3377H47.603L49.2446 13.8942H54.3646L51.6678 9.4386C53.0748 8.5789 53.837 7.09366 53.837 5.10038C53.837 1.9736 51.7069 0.195364 47.9939 0.195364H41.3692V13.8943H45.9029V10.3377ZM49.5376 5.23718C49.5376 6.29243 48.9709 6.8982 47.9939 6.8982H45.9029V3.63472H47.9939C48.9709 3.63472 49.5376 4.221 49.5376 5.23718Z" fill="#0182F9" />
	<path d="M66.6942 13.8845L64.1537 4.42611L61.5742 13.8845H57.9784L53.5034 0.205109H57.2164L59.8936 10.2692L62.5123 0.205109H65.9126L68.5898 10.2692L71.228 0.205109H74.7847L70.2705 13.8845H66.6942Z" fill="#fff" />
	<path fill-rule="evenodd" clip-rule="evenodd" d="M76.5825 13.8844L77.5791 11.3635H83.559L84.5361 13.8844H88.2491L82.4841 0.205013H78.908L73.0063 13.8844H76.5825ZM78.5953 8.72545L80.5886 3.66405L82.5428 8.72545H78.5953Z" fill="#fff" />
	<path d="M95.0299 13.8845H91.571V9.56575L86.5097 0.205109H89.9882L93.2907 6.16537L96.5151 0.205109H99.9937L95.0299 9.46793V13.8845Z" fill="#fff" />
</svg>
